<?xml version="1.0" encoding="UTF-8" standalone="no"?>
<svg xmlns="http://www.w3.org/2000/svg" width="200" height="200" fill="none" stroke="#000">
  <path fill="#fff" d="M94.291498 199.67645c-18.260773-1.36933-34.393919-6.70239-48.785425-16.12677-24.072162-15.76383-39.9632511-40.77009-44.3984131-69.86547-.87901213-5.76646-.98660322-20.184493-.19335221-25.910931C4.1922753 64.10981 14.369045 43.979506 31.210773 27.844927c7.661061-7.339384 15.311308-12.658737 25.024045-17.399656 9.447656-4.6115301 18.649478-7.5485787 28.54251-9.1102346C91.261028.3115587 104.39851.08739271 111.24258.88345749 130.10849 3.0778381 147.94207 10.558636 162.71255 22.473984c4.84735 3.910356 12.37734 11.559328 16.05771 16.311441 11.70676 15.115826 18.75429 32.977032 20.60721 52.226721.58581 6.085899.28347 17.406274-.62713 23.481784-6.51929 43.49644-40.56545 77.60101-84.0135 84.15765-5.24999.79228-16.216484 1.34199-20.445342 1.02487zm12.986362-22.86484c9.19499-.90516 17.65663-3.27346 26.02353-7.28367 26.92782-12.90635 43.78363-39.65332 43.78363-69.47634 0-26.256337-13.02492-50.28207-35.12731-64.795717-7.48809-4.917098-17.2642-8.918648-26.60037-10.888045-6.66653-1.406263-18.799656-1.778235-25.84353-.792304-25.524697 3.572685-47.645733 19.574677-58.803964 42.537826-20.443133 42.07109.655648 92.3069 44.95817 107.04456 10.541223 3.50662 20.918636 4.70613 31.609844 3.65369z"/>
  <path fill="#fff" d="M91.862348 153.18236c-16.661166-2.78249-30.287761-12.21217-38.59938-26.71101-3.304146-5.76378-5.403826-11.9561-6.565664-19.36332-.623474-3.97488-.272952-13.960775.636044-18.120176 4.022166-18.404733 17.421988-33.671372 34.858053-39.71436 11.389575-3.947397 24.149959-3.947255 35.536229.000405 15.97148 5.537372 28.5005 18.502154 33.60647 34.77534.58002 1.848542 1.05456 3.533761 1.05456 3.744939 0 .233203-4.60143.38396-11.71881.38396h-11.71881l-1.4497-2.758766c-3.94218-7.501987-11.26054-13.304574-19.59217-15.534242-4.03866-1.08081-11.188599-1.164668-15.237105-.178717-3.807312.92721-8.893292 3.441579-11.992166 5.928591-4.840089 3.884421-8.14011 8.572445-10.17996 14.461672-1.548028 4.469263-1.969271 11.480354-.97153 16.169764 3.122915 14.67778 15.713733 24.85107 30.717681 24.81965 11.53605-.02416 22.37582-6.71332 27.44918-16.93873l1.23415-2.48744h23.52359l-.27404 1.31579c-.52412 2.5165-2.33579 7.40852-3.93573 10.62753-7.49352 15.07667-20.952 25.52343-37.55498 29.15096-4.10855.89767-14.587523 1.13599-18.825912.42816z"/>
</svg>